<?xml version="1.0" encoding="UTF-8" standalone="no"?>
<!-- Created with Inkscape (http://www.inkscape.org/) -->

<svg
   xmlns:dc="http://purl.org/dc/elements/1.1/"
   xmlns:cc="http://creativecommons.org/ns#"
   xmlns:rdf="http://www.w3.org/1999/02/22-rdf-syntax-ns#"
   xmlns:svg="http://www.w3.org/2000/svg"
   xmlns="http://www.w3.org/2000/svg"
   xmlns:xlink="http://www.w3.org/1999/xlink"
   xmlns:sodipodi="http://sodipodi.sourceforge.net/DTD/sodipodi-0.dtd"
   xmlns:inkscape="http://www.inkscape.org/namespaces/inkscape"
   width="44mm"
   height="31mm"
   viewBox="0 0 155.90542 109.84246"
   id="svg2"
   version="1.1"
   inkscape:version="0.91 r13725"
   sodipodi:docname="header-logo.svg">
  <defs
     id="defs4">
    <linearGradient
       inkscape:collect="always"
       id="linearGradient6498">
      <stop
         style="stop-color:#8ed400;stop-opacity:1"
         offset="0"
         id="stop6500" />
      <stop
         style="stop-color:#04af40;stop-opacity:1"
         offset="1"
         id="stop6502" />
    </linearGradient>
    <linearGradient
       inkscape:collect="always"
       id="linearGradient6492">
      <stop
         style="stop-color:#8ed400;stop-opacity:1"
         offset="0"
         id="stop6494" />
      <stop
         style="stop-color:#04af40;stop-opacity:1"
         offset="1"
         id="stop6496" />
    </linearGradient>
    <linearGradient
       inkscape:collect="always"
       id="linearGradient6486">
      <stop
         style="stop-color:#8ed400;stop-opacity:1"
         offset="0"
         id="stop6488" />
      <stop
         style="stop-color:#04af40;stop-opacity:1"
         offset="1"
         id="stop6490" />
    </linearGradient>
    <linearGradient
       id="linearGradient4226-3"
       inkscape:collect="always">
      <stop
         id="stop4242"
         offset="0"
         style="stop-color:#00ff00;stop-opacity:1" />
      <stop
         id="stop4244"
         offset="1"
         style="stop-color:#00c500;stop-opacity:1" />
    </linearGradient>
    <linearGradient
       inkscape:collect="always"
       xlink:href="#linearGradient4226-3"
       id="linearGradient4224"
       x1="302.79321"
       y1="418.99655"
       x2="433.35544"
       y2="471.27194"
       gradientUnits="userSpaceOnUse" />
    <linearGradient
       inkscape:collect="always"
       xlink:href="#linearGradient6498"
       id="linearGradient5678"
       gradientUnits="userSpaceOnUse"
       x1="296.85358"
       y1="432.55182"
       x2="630.85406"
       y2="447.60156" />
    <linearGradient
       inkscape:collect="always"
       xlink:href="#linearGradient6486"
       id="linearGradient5680"
       gradientUnits="userSpaceOnUse"
       x1="296.85358"
       y1="432.55182"
       x2="630.85406"
       y2="447.60156" />
    <linearGradient
       inkscape:collect="always"
       xlink:href="#linearGradient6492"
       id="linearGradient5682"
       gradientUnits="userSpaceOnUse"
       x1="296.85358"
       y1="432.55182"
       x2="630.85406"
       y2="447.60156" />
  </defs>
  <sodipodi:namedview
     id="base"
     pagecolor="#ffffff"
     bordercolor="#666666"
     borderopacity="1.0"
     inkscape:pageopacity="0.0"
     inkscape:pageshadow="2"
     inkscape:zoom="2.8"
     inkscape:cx="202.11677"
     inkscape:cy="6.9031085"
     inkscape:document-units="px"
     inkscape:current-layer="g4209"
     showgrid="false"
     inkscape:window-width="1854"
     inkscape:window-height="1053"
     inkscape:window-x="66"
     inkscape:window-y="27"
     inkscape:window-maximized="1" />
  <metadata
     id="metadata7">
    <rdf:RDF>
      <cc:Work
         rdf:about="">
        <dc:format>image/svg+xml</dc:format>
        <dc:type
           rdf:resource="http://purl.org/dc/dcmitype/StillImage" />
        <dc:title></dc:title>
      </cc:Work>
    </rdf:RDF>
  </metadata>
  <g
     inkscape:label="Layer 1"
     inkscape:groupmode="layer"
     id="layer1"
     transform="translate(0,-942.51974)">
    <g
       id="g5667"
       transform="translate(-287.85714,552.32132)">
      <path
         id="path4205"
         d="m 345.54924,498.92973 c 4.86909,-0.35821 11.05027,-1.92916 16.08784,-4.08875 1.75705,-0.75326 5.55637,-2.68691 6.31211,-3.21256 0.21522,-0.14968 0.91104,-0.60085 1.54626,-1.00258 1.36626,-0.86407 4.41997,-3.11566 5.29609,-3.90497 0.33987,-0.30621 1.10635,-0.99627 1.70329,-1.53349 1.33911,-1.20513 2.58489,-2.51045 4.53964,-4.75664 4.38451,-5.03822 7.93183,-11.51065 10.15062,-18.52081 0.3351,-1.05871 0.64333,-2.09818 0.68499,-2.30992 0.0417,-0.21174 0.25254,-1.14726 0.46861,-2.07893 0.21607,-0.93167 0.42599,-1.97114 0.46649,-2.30993 0.0405,-0.33879 0.19855,-1.44755 0.35122,-2.46392 0.39276,-2.61485 0.39714,-10.11571 0.007,-12.78158 -0.14857,-1.01637 -0.30702,-2.12513 -0.35211,-2.46392 -0.20125,-1.51211 -1.20019,-5.45142 -1.97203,-7.77675 -2.0759,-6.25398 -5.66349,-12.68801 -9.61712,-17.24744 -2.34204,-2.70087 -2.98803,-3.36822 -5.16572,-5.33638 -2.23394,-2.01902 -4.2897,-3.61194 -6.37989,-4.94352 -0.56567,-0.36036 -1.34032,-0.85586 -1.72146,-1.10108 -1.16048,-0.74667 -4.75626,-2.57932 -6.54737,-3.33699 -4.83087,-2.0435 -10.59634,-3.50256 -15.7819,-3.9939 -1.89245,-0.17932 -6.87716,-0.2171 -8.78868,-0.0666 -2.43455,0.19166 -7.02361,0.94741 -8.92075,1.46912 -0.80462,0.22127 -1.60154,0.42896 -1.77094,0.46153 -0.49321,0.0948 -3.40122,1.10886 -5.15883,1.7989 -3.67686,1.44354 -9.12908,4.5313 -11.8105,6.68864 -0.32235,0.25936 -1.14048,0.91064 -1.81806,1.44731 -1.58724,1.25715 -4.85882,4.44613 -6.38115,6.22003 -2.25262,2.62487 -4.85548,6.30481 -6.15007,8.69499 -3.13067,5.7801 -5.0289,11.18536 -6.02717,17.16254 -0.54183,3.24415 -0.68749,5.09053 -0.68749,8.71434 0,3.62381 0.14566,5.4702 0.68749,8.71435 1.22449,7.33164 4.0486,14.44848 8.21368,20.69869 2.38434,3.578 7.28814,8.9736 10.34471,11.38217 0.67758,0.53393 1.43986,1.14495 1.69395,1.35785 0.64383,0.53945 4.59541,3.14105 5.62082,3.70059 2.87564,1.56917 4.09067,2.15145 6.77577,3.24714 4.60749,1.88014 11.02458,3.31624 15.68971,3.51124 1.23788,0.0518 2.28536,0.12708 2.32771,0.16741 0.0785,0.0748 4.13104,-0.0626 6.0828,-0.20615 z"
         style="fill:#ffffff;fill-opacity:1"
         inkscape:connector-curvature="0" />
      <g
         style="fill:url(#linearGradient4224);fill-opacity:1"
         id="g4209">
        <path
           style="fill:url(#linearGradient5678);fill-opacity:1"
           d="m 342.80814,474.44001 c -0.0233,-0.0233 -1.80681,-0.0529 -3.96343,-0.0658 -3.85542,-0.0231 -5.77293,-0.1838 -8.07899,-0.67694 -0.59288,-0.12679 -1.32051,-0.26948 -1.61695,-0.31709 -0.66871,-0.10741 -4.5007,-1.2637 -5.23451,-1.57948 -2.91113,-1.25283 -5.16959,-2.52742 -6.8541,-3.86819 -0.98395,-0.78315 -2.23292,-1.95041 -2.23292,-2.0868 0,-0.0306 0.3261,0.0424 0.72467,0.16239 0.39855,0.11995 0.98219,0.25044 1.29694,0.28999 0.31477,0.0395 1.49589,0.27671 2.62474,0.52704 1.12883,0.25032 2.43357,0.49658 2.8994,0.54724 0.46584,0.0507 1.436,0.19035 2.15593,0.31045 1.89314,0.3158 3.62794,0.5356 4.77384,0.60482 6.71265,0.40548 8.10955,0.43522 11.58813,0.24667 5.404,-0.29293 6.22098,-0.38277 10.58715,-1.16422 0.21175,-0.0379 0.59288,-0.10435 0.84697,-0.14768 2.94038,-0.50131 8.909,-2.24438 12.82009,-3.74393 0.44466,-0.1705 0.80847,-0.26307 0.80847,-0.2057 0,0.32393 -1.29998,1.96932 -2.45166,3.10306 -2.10895,2.07611 -4.99715,3.87105 -8.63598,5.36699 -1.27688,0.52493 -4.29416,1.49255 -5.00929,1.60641 -0.25164,0.0401 -1.01191,0.18575 -1.68949,0.32373 -1.32243,0.26929 -5.28903,0.83707 -5.35901,0.76709 z"
           id="path4203"
           inkscape:connector-curvature="0" />
        <path
           style="fill:url(#linearGradient5680);fill-opacity:1"
           d="m 319.2168,418.25195 c -2.55507,0 -3.63526,0.14777 -5.59961,0.76367 -3.09141,0.96927 -5.45491,2.40238 -7.73047,4.6875 -2.60976,2.62073 -4.07279,5.1811 -5.02344,8.79297 -0.46879,1.78094 -0.65542,5.40626 -0.37109,7.23047 0.7793,4.99985 3.38181,9.36262 7.42187,12.44727 1.97541,1.50827 4.60457,2.72582 6.99024,3.23633 0.84698,0.18124 1.67826,0.36214 1.84765,0.40234 0.1694,0.0402 1.45211,0.0515 2.84961,0.0254 2.24961,-0.042 2.7443,-0.10137 4.32422,-0.51758 3.34952,-0.88239 6.22359,-2.54479 8.68945,-5.02734 2.27696,-2.29237 3.81137,-4.89305 4.71289,-7.99024 0.91353,-3.13862 0.93485,-7.30373 0.0547,-10.3457 -0.79999,-2.76495 -1.95269,-4.91976 -3.81054,-7.12305 -2.3405,-2.77565 -5.15362,-4.6514 -8.6875,-5.79101 -1.97643,-0.63736 -3.07668,-0.79102 -5.66797,-0.79102 z m 0.10937,5.35547 c 0.66125,0.001 1.30023,0.0587 1.89258,0.17383 3.13126,0.60873 4.94567,1.49734 6.99219,3.42383 2.58197,2.43058 3.89085,4.9996 4.34375,8.53125 0.44997,3.50868 -1.07733,7.86908 -3.71485,10.61523 -1.7251,1.79615 -4.35982,3.27244 -6.72461,3.76563 -1.1604,0.24205 -3.25771,0.40278 -3.97656,0.30469 -0.39862,-0.0544 -0.91213,-0.14398 -2.64453,-0.4629 -0.18427,-0.0339 -0.88808,-0.29923 -1.5625,-0.58789 -2.90974,-1.24542 -5.26046,-3.48317 -6.72656,-6.40234 -2.54333,-5.06406 -1.53512,-11.28344 2.49023,-15.35937 1.21651,-1.2318 1.96124,-1.7636 3.66992,-2.61915 1.78659,-0.89453 3.97719,-1.38678 5.96094,-1.38281 z"
           id="path4201"
           inkscape:connector-curvature="0" />
        <path
           style="fill:url(#linearGradient5682);fill-opacity:1"
           d="m 362.18359,418.24609 c -3.05565,0.0595 -3.4625,0.12492 -5.93164,0.95313 -1.03374,0.34675 -4.27186,1.9323 -4.46679,2.1875 -0.0423,0.0554 -0.35262,0.30329 -0.69141,0.55078 -2.10315,1.53638 -4.33964,4.17559 -5.5293,6.52539 -0.67394,1.3312 -1.32198,3.23141 -1.66211,4.87891 -0.41711,2.02038 -0.44088,5.3045 -0.0527,7.08593 0.14763,0.67758 0.29738,1.39425 0.33398,1.5918 0.14793,0.79746 1.14677,3.18947 1.84961,4.42969 0.84101,1.48406 2.11112,3.03998 3.70118,4.53906 2.67106,2.51823 5.76384,4.00151 10.05859,4.81836 0.21174,0.0403 1.56406,0.0525 3.00391,0.0273 2.2408,-0.0392 2.8467,-0.10554 4.20507,-0.45703 7.34826,-1.90152 12.93956,-7.99594 14.06836,-15.33398 1.25116,-8.13366 -2.77045,-16.06535 -10.02734,-19.77735 -3.13711,-1.60466 -5.26338,-2.08963 -8.85938,-2.01953 z m 0.0606,5.40235 c 1.25134,-0.0195 2.49595,0.124 3.625,0.43945 1.81116,0.50601 3.02039,1.08597 4.42188,2.11914 2.62469,1.9349 4.51918,4.84032 5.26562,8.08008 0.22656,0.98336 0.24367,4.41002 0.0273,5.44727 -0.28626,1.37265 -1.27931,3.67936 -2.08984,4.85742 -1.94267,2.82359 -5.07643,4.93105 -8.22852,5.53125 -1.28029,0.24378 -3.17472,0.38256 -3.93164,0.28906 -2.33225,-0.288 -4.39779,-0.96962 -6.0371,-1.99219 -1.58456,-0.98841 -3.50986,-3.00063 -4.47852,-4.68164 -0.46662,-0.80976 -1.28043,-2.80325 -1.41602,-3.4668 -0.79129,-3.87197 -0.17879,-7.47395 1.78516,-10.48242 1.35903,-2.08182 2.91529,-3.49178 5.23047,-4.74218 1.63402,-0.88254 3.7406,-1.36598 5.82617,-1.39844 z"
           id="path4197"
           inkscape:connector-curvature="0" />
        <path
           style="fill:#ffffff;fill-opacity:1"
           d="m 403.99041,449.55184 c 1.05762,-0.72192 1.07789,-0.84299 1.07789,-6.4371 0,-2.94822 0.069,-5.39431 0.16733,-5.93121 0.22654,-1.2371 0.78512,-2.21012 1.85416,-3.2298 1.06016,-1.01124 2.20936,-1.57538 3.63647,-1.78519 0.57244,-0.0842 1.26751,-0.18671 1.5446,-0.22791 0.27706,-0.0412 0.74387,-0.28572 1.03731,-0.54337 1.21536,-1.06709 1.00347,-3.18662 -0.39063,-3.90753 -0.57015,-0.29484 -3.16518,-0.30496 -4.23036,-0.0165 -3.86843,1.04763 -6.82768,3.78308 -8.0538,7.44475 l -0.40108,1.19778 -0.007,6.28596 -0.007,6.28596 0.64851,0.60531 c 0.61457,0.57363 0.70003,0.60533 1.63267,0.60533 0.76755,0 1.09589,-0.0763 1.49177,-0.34649 z"
           id="path4193"
           inkscape:connector-curvature="0" />
        <path
           style="fill:#ffffff;fill-opacity:1"
           d="m 426.34892,449.49394 c 2.68942,-0.9662 4.31761,-2.74747 5.04097,-5.5149 0.43352,-1.65856 0.41414,-3.00874 -0.0647,-4.50591 -0.66618,-2.08287 -2.3157,-3.94594 -4.34261,-4.90482 -0.77407,-0.3662 -1.3412,-0.49706 -3.39141,-0.78254 -0.60152,-0.0838 -0.96742,-0.42076 -0.96742,-0.891 0,-0.49852 0.4854,-0.87253 1.25851,-0.96972 1.71618,-0.2157 2.71284,-2.22119 1.78289,-3.58757 -0.66099,-0.9712 -1.06829,-1.15535 -2.51326,-1.13629 -1.1229,0.0148 -1.42899,0.082 -2.27895,0.50049 -1.84811,0.90982 -3.01136,2.66051 -3.1443,4.73222 -0.12746,1.98612 0.42424,3.44519 1.78177,4.71215 0.98837,0.92242 1.92239,1.3393 3.54803,1.58356 2.59975,0.39063 3.56918,1.25984 3.56918,3.2002 0,0.81883 -0.0741,1.09526 -0.45404,1.69441 -1.13405,1.78821 -3.86781,1.90804 -5.15094,0.22577 -0.25916,-0.33977 -0.44837,-0.87905 -0.57282,-1.63256 -0.30494,-1.84651 -1.10733,-2.63663 -2.67691,-2.63593 -2.07941,0.002 -2.90119,1.90992 -2.01858,4.68922 0.47438,1.49386 1.11982,2.48587 2.35201,3.61496 1.65526,1.51674 2.9236,1.98759 5.39371,2.00236 1.48788,0.009 1.87703,-0.0449 2.8489,-0.3941 z"
           id="path4191"
           inkscape:connector-curvature="0" />
        <path
           style="fill:#ffffff;fill-opacity:1"
           d="m 439.53233,449.68198 c 0.22869,-0.11899 0.58907,-0.40177 0.80082,-0.62839 l 0.38498,-0.41201 0,-10.1487 0,-10.1487 -0.57486,-0.57487 c -0.53213,-0.53211 -0.65235,-0.5791 -1.61695,-0.63187 -0.89837,-0.0491 -1.11641,-0.007 -1.58106,0.30856 -1.04363,0.70782 -1.00097,0.23671 -1.00097,11.05672 0,9.12287 0.0186,9.8127 0.27696,10.28597 0.40053,0.7336 1.10311,1.10839 2.07912,1.10909 0.44886,0 1.00324,-0.0968 1.23196,-0.2158 z"
           id="path4189"
           inkscape:connector-curvature="0" />
        <path
           style="fill:#ffffff;fill-opacity:1"
           d="m 439.29862,425.04713 c 0.27256,-0.11662 0.70344,-0.43301 0.95753,-0.7031 0.41826,-0.44458 0.46198,-0.58847 0.46198,-1.52042 0,-0.81819 -0.0704,-1.12812 -0.34345,-1.51084 -0.50224,-0.70412 -1.29519,-1.03057 -2.30066,-0.9472 -2.98714,0.24773 -2.77648,4.85177 0.22364,4.88756 0.27799,0.003 0.72842,-0.0894 1.00096,-0.206 z"
           id="path4147"
           inkscape:connector-curvature="0" />
      </g>
    </g>
  </g>
</svg>
